<?xml version="1.0" encoding="UTF-8"?>
<!DOCTYPE svg PUBLIC "-//W3C//DTD SVG 1.1//EN" "http://www.w3.org/Graphics/SVG/1.1/DTD/svg11.dtd">
<svg xmlns="http://www.w3.org/2000/svg" version="1.1" width="1440px" height="112px" style="shape-rendering:geometricPrecision; text-rendering:geometricPrecision; image-rendering:optimizeQuality; fill-rule:evenodd; clip-rule:evenodd" xmlns:xlink="http://www.w3.org/1999/xlink">
<g><path style="opacity:1" fill="#f3f6f3" d="M -0.5,-0.5 C 104.167,-0.5 208.833,-0.5 313.5,-0.5C 313.5,-0.166667 313.5,0.166667 313.5,0.5C 259.694,0.655256 206.027,3.48859 152.5,9C 111.471,10.0048 70.4709,9.50478 29.5,7.5C 25.5662,6.64032 21.5662,6.30698 17.5,6.5C 11.5101,5.76038 5.51009,5.09371 -0.5,4.5C -0.5,2.83333 -0.5,1.16667 -0.5,-0.5 Z"/></g>
<g><path style="opacity:1" fill="#f2f5f2" d="M 313.5,0.5 C 313.5,0.166667 313.5,-0.166667 313.5,-0.5C 539.167,-0.5 764.833,-0.5 990.5,-0.5C 948.602,0.62336 906.602,2.79003 864.5,6C 796.758,11.5463 729.091,17.8797 661.5,25C 642.819,26.2963 624.152,27.463 605.5,28.5C 550.962,20.0883 496.296,12.5883 441.5,6C 398.94,1.72667 356.273,-0.106666 313.5,0.5 Z"/></g>
<g><path style="opacity:1" fill="#325343" d="M 990.5,-0.5 C 1007.17,-0.5 1023.83,-0.5 1040.5,-0.5C 1118.83,2.7857 1197.16,8.2857 1275.5,16C 1330.31,21.4498 1384.97,20.6164 1439.5,13.5C 1439.5,46.1667 1439.5,78.8333 1439.5,111.5C 959.5,111.5 479.5,111.5 -0.5,111.5C -0.5,75.8333 -0.5,40.1667 -0.5,4.5C 5.51009,5.09371 11.5101,5.76038 17.5,6.5C 21.3164,7.48242 25.3164,8.14909 29.5,8.5C 135.75,22.0451 242.417,30.8784 349.5,35C 415.856,36.1154 482.189,35.4488 548.5,33C 567.676,31.7832 586.676,30.2832 605.5,28.5C 624.152,27.463 642.819,26.2963 661.5,25C 729.091,17.8797 796.758,11.5463 864.5,6C 906.602,2.79003 948.602,0.62336 990.5,-0.5 Z"/></g>
<g><path style="opacity:1" fill="#f1f3f1" d="M 1040.5,-0.5 C 1173.5,-0.5 1306.5,-0.5 1439.5,-0.5C 1439.5,4.16667 1439.5,8.83333 1439.5,13.5C 1384.97,20.6164 1330.31,21.4498 1275.5,16C 1197.16,8.2857 1118.83,2.7857 1040.5,-0.5 Z"/></g>
<g><path style="opacity:1" fill="#6ec24c" d="M 313.5,0.5 C 356.273,-0.106666 398.94,1.72667 441.5,6C 496.296,12.5883 550.962,20.0883 605.5,28.5C 586.676,30.2832 567.676,31.7832 548.5,33C 482.189,35.4488 415.856,36.1154 349.5,35C 242.417,30.8784 135.75,22.0451 29.5,8.5C 29.5,8.16667 29.5,7.83333 29.5,7.5C 70.4709,9.50478 111.471,10.0048 152.5,9C 206.027,3.48859 259.694,0.655256 313.5,0.5 Z"/></g>
<g><path style="opacity:1" fill="#7baf6d" d="M 17.5,6.5 C 21.5662,6.30698 25.5662,6.64032 29.5,7.5C 29.5,7.83333 29.5,8.16667 29.5,8.5C 25.3164,8.14909 21.3164,7.48242 17.5,6.5 Z"/></g>
</svg>
