<?xml version="1.0" encoding="UTF-8"?>
<!DOCTYPE svg PUBLIC "-//W3C//DTD SVG 1.1//EN" "http://www.w3.org/Graphics/SVG/1.1/DTD/svg11.dtd">
<svg xmlns="http://www.w3.org/2000/svg" version="1.1" width="390px" height="48px" style="shape-rendering:geometricPrecision; text-rendering:geometricPrecision; image-rendering:optimizeQuality; fill-rule:evenodd; clip-rule:evenodd" xmlns:xlink="http://www.w3.org/1999/xlink">
<g><path style="opacity:0.971" fill="#71c44f" d="M 71.5,-0.5 C 81.8333,-0.5 92.1667,-0.5 102.5,-0.5C 124.297,2.19114 145.964,6.19114 167.5,11.5C 124.865,17.269 82.198,16.4357 39.5,9C 27.7731,7.27746 16.1064,5.27746 4.5,3C 3.94404,2.61742 3.61071,2.11742 3.5,1.5C 11.4297,2.70554 19.4297,3.37221 27.5,3.5C 42.3612,2.66058 57.0279,1.32725 71.5,-0.5 Z"/></g>
<g><path style="opacity:0.995" fill="#fefbf5" d="M 253.5,-0.5 C 268.167,-0.5 282.833,-0.5 297.5,-0.5C 316.66,2.21135 335.993,4.71135 355.5,7C 366.904,7.84478 378.237,7.34478 389.5,5.5C 389.5,19.5 389.5,33.5 389.5,47.5C 259.5,47.5 129.5,47.5 -0.5,47.5C -0.5,32.1667 -0.5,16.8333 -0.5,1.5C 0.833333,1.5 2.16667,1.5 3.5,1.5C 3.61071,2.11742 3.94404,2.61742 4.5,3C 16.1064,5.27746 27.7731,7.27746 39.5,9C 82.198,16.4357 124.865,17.269 167.5,11.5C 196.238,7.01321 224.904,3.01321 253.5,-0.5 Z"/></g>
</svg>
